<svg xmlns="http://www.w3.org/2000/svg" width="24" height="24" viewBox="0 0 24 24" fill="none" stroke="currentColor" stroke-width="2" stroke-linecap="round" stroke-linejoin="round">
  <path d="M18 16.5a2.5 2.5 0 0 1 0 5H6a2.5 2.5 0 0 1 0-5"></path>
  <path d="M18 3a2.5 2.5 0 0 1 0 5H6a2.5 2.5 0 0 1 0-5"></path>
  <path d="M18 9.5a2.5 2.5 0 0 1 0 5H6a2.5 2.5 0 0 1 0-5"></path>
  <path d="M6 16.5v-5"></path>
  <path d="M18 16.5v-5"></path>
  <path d="M18 9.5V5"></path>
  <path d="M6 9.5V5"></path>
</svg> 