<?xml version="1.0" encoding="UTF-8"?>
<svg version="1.1" xmlns="http://www.w3.org/2000/svg" width="1024" height="1024">
<path d="M0 0 C337.92 0 675.84 0 1024 0 C1024 337.92 1024 675.84 1024 1024 C686.08 1024 348.16 1024 0 1024 C0 686.08 0 348.16 0 0 Z " fill="#F8F5F2" transform="translate(0,0)"/>
<path d="M0 0 C9.46233184 -0.04235709 18.92471077 -0.07093161 28.3870971 -0.09802329 C35.97635013 -0.12042805 43.56535727 -0.15497029 51.15447796 -0.20516516 C56.87603508 -0.2418315 62.59750304 -0.25784613 68.31916485 -0.266061 C70.65787558 -0.27283241 72.99657786 -0.28657048 75.33520279 -0.30771702 C78.51750399 -0.33560655 81.69891423 -0.3389987 84.88131437 -0.33618253 C85.80774492 -0.35026979 86.73417547 -0.36435705 87.68867967 -0.3788712 C91.88434964 -0.35044565 94.06387716 -0.2527167 97.68572531 2.03372389 C102.4263327 7.05636042 102.03364052 11.92970462 101.89593229 18.55399996 C101.56819606 26.47248124 100.39978606 34.31775522 99.32046232 42.16160494 C98.60303518 47.388461 97.92148698 52.6200137 97.23772917 57.85136325 C97.09988508 58.90176791 96.962041 59.95217257 96.82001982 61.03440768 C95.60725329 70.34155276 94.55237415 79.65952363 93.59319792 88.9958945 C93.47772612 90.11438784 93.47772612 90.11438784 93.35992155 91.25547701 C92.78132523 96.8762346 92.2169257 102.49837954 91.65569792 108.1208945 C90.93237038 115.3662893 90.20789517 122.61156185 89.47808561 129.85630709 C89.26401874 131.9825075 89.05055355 134.10876858 88.83770476 136.23509127 C87.42539306 150.30934777 85.76294014 164.31622626 83.83245573 178.32792575 C82.6334361 187.37253897 82.30844963 196.00562679 82.65569792 205.1208945 C87.60569792 205.4508945 92.55569792 205.7808945 97.65569792 206.1208945 C97.60917082 204.51806613 97.60917082 204.51806613 97.56170378 202.88285739 C97.56725318 197.16845452 98.38742943 191.58248229 99.15960417 185.92948825 C99.31821425 184.73591708 99.47682432 183.54234591 99.64024077 182.31260592 C100.07190123 179.06901235 100.507955 175.82604459 100.94566069 172.58326251 C101.40493614 169.17098678 101.85798476 165.75788685 102.31097136 162.34477145 C102.40228142 161.65683096 102.49359148 160.96889046 102.58766852 160.26010329 C102.77338053 158.86072591 102.95906271 157.46134458 103.14471541 156.06195933 C103.42663755 153.938411 103.70918968 151.81494722 103.99184904 149.69149691 C105.84784264 135.73699838 107.63465991 121.77391542 109.40569792 107.8083945 C109.69701772 105.51705064 109.98835859 103.22570945 110.27972136 100.93437106 C111.50705469 91.2694844 112.72492062 81.60360754 113.90960417 71.9333945 C114.00286986 71.17500781 114.09613554 70.41662112 114.19222746 69.63525302 C114.6045327 66.2822966 115.0135364 62.92909393 115.41448698 59.57475192 C116.21610914 53.01768917 117.2399402 46.57451959 118.65569792 40.1208945 C128.91337643 36.70166833 141.50339963 37.91924044 152.27288542 37.847457 C153.03337313 37.84213332 153.79386084 37.83680964 154.57739363 37.83132464 C158.58720863 37.80489156 162.59699542 37.78540749 166.60686979 37.77079684 C169.90044143 37.7573774 173.1934053 37.72933704 176.48675261 37.68876559 C180.50355575 37.63933548 184.51980263 37.61466873 188.5368968 37.60756976 C190.05428049 37.60089366 191.57165345 37.58576739 193.08886061 37.56167895 C208.25430383 37.33419981 208.25430383 37.33419981 214.65569792 43.1208945 C215.3416403 43.70983493 216.02758269 44.29877535 216.7343112 44.90556246 C223.8908488 53.01745785 229.60592636 62.22442882 235.53069792 71.2458945 C236.66155264 72.95726545 237.79305905 74.66820596 238.92522917 76.378707 C241.13560709 79.71977862 243.34210021 83.06336278 245.5455905 86.40898043 C248.37883445 90.70739393 251.23471236 94.99029684 254.09710417 99.269332 C257.70921702 104.67548275 261.2610857 110.11421299 264.71819792 115.6208945 C265.46879484 116.81525118 265.46879484 116.81525118 266.23455534 118.03373629 C267.71298009 120.39322579 269.18586304 122.75604605 270.65569792 125.1208945 C271.08302214 125.80748141 271.51034636 126.49406832 271.95061979 127.2014609 C284.24792918 147.04931826 290.02296567 161.35887814 287.42045698 185.15952021 C287.18686756 187.29864305 286.96167246 189.43852087 286.738309 191.57873446 C286.1804217 196.90965986 285.61030359 202.23925766 285.0379611 207.5686484 C284.4777926 212.78703779 283.92603603 218.00624036 283.38226042 223.22636325 C283.2663241 224.3294917 283.2663241 224.3294917 283.14804564 225.45490557 C282.27673331 233.80967325 281.54484761 242.15289374 281.08831511 250.54130465 C281.04641995 251.30357647 281.00452479 252.06584828 280.96136007 252.85121924 C280.7661446 256.49005046 280.59151158 260.12847361 280.44588957 263.76962191 C280.38412535 265.05770251 280.32236113 266.34578311 280.25872526 267.67289645 C280.21371885 268.80129443 280.16871245 269.92969241 280.12234221 271.09228427 C279.60288822 274.46363948 278.68001905 276.39430059 276.65569792 279.1208945 C269.17600181 283.77492763 261.28947603 283.25150664 252.78069792 283.1833945 C251.71077604 283.17888278 250.64085417 283.17437106 249.53851042 283.16972262 C246.91084806 283.15799198 244.28330253 283.14157678 241.65569792 283.1208945 C241.58093229 281.934957 241.50616667 280.7490195 241.42913542 279.5271445 C239.83959179 258.59996544 232.9585982 241.12895837 216.65569792 227.1208945 C203.42191429 216.99181084 188.10165031 213.68005789 171.65569792 215.1208945 C158.01052596 217.72493495 147.92605976 225.15622206 137.65569792 234.1208945 C137.04081511 234.65069918 136.42593229 235.18050387 135.79241667 235.72636325 C123.6043269 247.04179742 115.51196832 261.36606985 112.23382292 277.566207 C111.65569792 280.1208945 111.65569792 280.1208945 110.65569792 281.1208945 C80.82134909 286.56301037 49.39322051 284.51231564 19.18848107 284.39351708 C12.60024651 284.36850127 6.01206149 284.36246251 -0.57621374 284.3584624 C-7.01533982 284.35441315 -13.45444665 284.34193224 -19.89355817 284.32811553 C-21.89374542 284.3241159 -23.89393476 284.32120468 -25.89412393 284.31832034 C-45.39514596 284.28196146 -64.85782804 283.82393139 -84.34430208 283.1208945 C-84.37273699 281.9252286 -84.40117189 280.72956271 -84.43046846 279.49766451 C-84.91950972 260.4865446 -91.4557098 244.51201064 -104.66852083 230.597457 C-118.17929885 218.09259092 -133.76399162 214.38140051 -151.64898958 214.81230075 C-168.47190328 215.62740372 -182.38509248 225.36824936 -193.46148958 237.425582 C-204.67949451 250.73877851 -211.20684507 266.33560141 -215.34430208 283.1208945 C-221.37739089 284.16137156 -227.29135655 284.3381697 -233.40680208 284.3708945 C-234.85796419 284.401832 -234.85796419 284.401832 -236.33844271 284.4333945 C-241.75046711 284.46302913 -245.71467469 284.26428516 -250.34430208 281.1208945 C-253.49609031 276.60333137 -253.81108339 272.47258297 -253.34430208 267.1208945 C-252.6895772 263.97936369 -251.78939302 260.9360543 -250.84430208 257.8708945 C-250.37083226 256.30460515 -249.90190937 254.73693245 -249.43805208 253.1677695 C-249.22857942 252.48553317 -249.01910677 251.80329684 -248.80328646 251.10038668 C-248.19371724 248.81012529 -248.19371724 248.81012529 -248.34430208 245.1208945 C-253.61350827 242.94740019 -258.1049229 242.91545693 -263.68805208 243.066207 C-265.50965917 243.09149216 -267.33127415 243.11621462 -269.15289583 243.14042575 C-272.00357314 243.19007541 -274.85383347 243.24611744 -277.70416536 243.31278903 C-280.46965387 243.37335413 -283.2346104 243.40877841 -286.00055208 243.441207 C-287.27110445 243.48158587 -287.27110445 243.48158587 -288.56732454 243.52278048 C-293.99798549 243.56859358 -297.04275001 242.75396212 -301.34430208 239.1208945 C-306.0224505 232.66827598 -305.88862307 225.85025251 -305.34430208 218.1208945 C-304.56099185 214.24135012 -303.4857588 211.13031322 -300.4363431 208.43363864 C-295.71157045 206.42770871 -291.14131835 206.68004597 -286.05914583 206.67948825 C-284.96590502 206.66628039 -283.8726642 206.65307253 -282.74629488 206.63946444 C-279.25810451 206.59860636 -275.77017748 206.57690493 -272.28180208 206.5583945 C-268.78993618 206.53460762 -265.29831829 206.50649573 -261.80659761 206.46661288 C-259.63532932 206.44225979 -257.46392942 206.42739807 -255.29252901 206.42300326 C-254.30793199 206.41281665 -253.32333498 206.40263003 -252.30890169 206.39213473 C-251.44462053 206.38785967 -250.58033937 206.38358462 -249.68986788 206.37918002 C-247.13206327 206.0975235 -245.52397553 205.46917035 -243.34430208 204.1208945 C-239.53911009 198.77718353 -238.87024366 192.89801157 -238.71539583 186.503707 C-239.14329871 183.9306701 -239.14329871 183.9306701 -241.50836458 182.3708945 C-244.49354087 181.05511431 -247.05669304 180.45247364 -250.28180208 179.9958945 C-251.28082552 179.84894137 -252.27984896 179.70198825 -253.30914583 179.550582 C-254.31074739 179.40878512 -255.31234896 179.26698825 -256.34430208 179.1208945 C-257.24249163 178.95028506 -258.14068117 178.77967562 -259.06608858 178.6038962 C-262.69486227 178.06924405 -266.16272458 177.98145248 -269.83087435 177.96317965 C-270.91741808 177.95555857 -270.91741808 177.95555857 -272.02591219 177.94778353 C-273.58911287 177.93713459 -275.15232828 177.92849325 -276.71555033 177.9216643 C-279.19164726 177.90980886 -281.66757494 177.89034224 -284.14360323 177.86854464 C-291.18009081 177.80713095 -298.21655609 177.75282848 -305.25323763 177.71952731 C-309.56562365 177.69857484 -313.87769206 177.66327716 -318.18989649 177.61876971 C-319.82967604 177.60462531 -321.46951167 177.59589079 -323.10934915 177.59271533 C-325.40227937 177.58780231 -327.69436587 177.56463875 -329.98712435 177.5373984 C-331.290291 177.52931155 -332.59345766 177.5212247 -333.93611421 177.51289279 C-338.16505764 177.02649396 -340.95194742 175.77655978 -343.70758333 172.49980075 C-347.10723585 165.99429284 -347.59237593 158.98669594 -345.76617708 151.86698825 C-344.44646368 148.50452697 -343.39051891 147.15170571 -340.34430208 145.1208945 C-338.10780325 144.86476809 -338.10780325 144.86476809 -335.44374361 144.85587985 C-333.92773058 144.8434701 -333.92773058 144.8434701 -332.38109102 144.83080966 C-331.27300585 144.83179156 -330.16492067 144.83277346 -329.02325716 144.83378512 C-327.85548738 144.82695208 -326.68771761 144.82011904 -325.48456087 144.81307894 C-322.94403601 144.79947109 -320.4034836 144.7904306 -317.86292734 144.78536898 C-313.840397 144.7770963 -309.81809872 144.75688806 -305.7956418 144.73283297 C-297.24940122 144.68385088 -288.70312497 144.65157443 -280.15680208 144.6208945 C-270.94714163 144.58778458 -261.73754669 144.55171037 -252.52798661 144.49676377 C-247.89267991 144.46976339 -243.25747118 144.45791999 -238.62208834 144.44865328 C-236.18549566 144.43567605 -233.7489058 144.42215503 -231.31231966 144.40800387 C-230.21435564 144.40898577 -229.11639162 144.40996768 -227.98515596 144.41097933 C-222.10416393 144.36350118 -216.94258004 143.99278348 -211.34430208 142.1208945 C-207.43844986 138.11489222 -206.18452768 135.37465633 -206.09430208 129.8708945 C-206.15511746 125.23068083 -206.42732627 121.91296305 -209.34430208 118.1208945 C-213.58202572 116.34451022 -217.17539137 115.87800034 -221.74454012 115.90730197 C-223.64537607 115.91184893 -223.64537607 115.91184893 -225.58461275 115.91648776 C-226.97635315 115.92994329 -228.36809201 115.94355949 -229.75982942 115.95732028 C-231.23539594 115.96443821 -232.71096728 115.97060863 -234.18654146 115.97590548 C-237.35733426 115.98897921 -240.52801311 116.00807971 -243.69874468 116.03169543 C-248.71693463 116.06836986 -253.73509738 116.08750274 -258.75339022 116.10352999 C-273.0211214 116.15176517 -287.28868474 116.22352628 -301.55621614 116.31278903 C-309.44133561 116.36196618 -317.3263894 116.39664082 -325.2116399 116.4159078 C-330.19561695 116.42895755 -335.17905047 116.45999767 -340.16284051 116.50454265 C-343.26943755 116.52808474 -346.37590439 116.53474215 -349.48258295 116.53673846 C-350.91766737 116.54101557 -352.35275114 116.55213745 -353.78772058 116.57079989 C-369.38235219 116.7656817 -369.38235219 116.7656817 -375.8528985 110.70872599 C-379.4642985 106.67728005 -381.15320214 103.14655386 -381.65680208 97.8083945 C-381.19852461 92.40072038 -380.14980374 88.08509317 -376.4256772 84.03362948 C-371.95247066 81.25692807 -368.06565562 81.57167395 -362.89776888 81.62260348 C-361.8467499 81.61708468 -360.79573091 81.61156588 -359.71286287 81.60587985 C-357.43320034 81.59656196 -355.15348576 81.59645289 -352.8738183 81.60447413 C-349.2626257 81.61709623 -345.65219837 81.60581988 -342.04103365 81.58843905 C-335.67365295 81.56171408 -329.30645937 81.55614407 -322.93902864 81.55754 C-312.75806686 81.55976653 -302.57733733 81.54560303 -292.39646616 81.50195414 C-288.84458581 81.49212949 -285.29307118 81.50082763 -281.74119844 81.51064974 C-279.55380284 81.50450328 -277.36640921 81.4975908 -275.17901888 81.48979098 C-273.70509928 81.50136988 -273.70509928 81.50136988 -272.20140352 81.5131827 C-266.24170152 81.46945146 -261.75093799 80.70093967 -256.34430208 78.1208945 C-254.87641444 75.80439619 -254.87641444 75.80439619 -254.53180208 73.1208945 C-253.81277103 69.48789552 -253.33257973 67.43626701 -250.34430208 65.1208945 C-247.35473713 64.12437285 -245.51358506 64.02582214 -242.40143099 64.08671481 C-241.39673769 64.1029288 -240.39204439 64.11914279 -239.35690584 64.13584811 C-238.27251222 64.15669467 -237.18811861 64.17754122 -236.07086458 64.1990195 C-233.77921207 64.22627818 -231.48754433 64.25228085 -229.19586458 64.2771445 C-225.5789149 64.32040239 -221.96275208 64.37102514 -218.34625521 64.44316012 C-214.85850053 64.50975664 -211.37160474 64.54454097 -207.88336458 64.5740195 C-206.80301943 64.60296298 -205.72267427 64.63190646 -204.60959139 64.66172701 C-198.45334664 64.72953078 -198.45334664 64.72953078 -193.20514192 61.74101168 C-189.72537077 56.84139164 -188.81422363 53.16378889 -189.34430208 47.1208945 C-190.9215451 43.14023354 -191.75431119 41.51422176 -195.34430208 39.1208945 C-200.72111808 38.22372942 -206.00460671 37.96750432 -211.45343294 37.94731051 C-212.22043016 37.9406235 -212.98742739 37.93393649 -213.77766695 37.92704684 C-215.42867217 37.91309483 -217.07969556 37.90117033 -218.73072901 37.89109904 C-221.35089427 37.87453685 -223.97092477 37.85129575 -226.59102144 37.8262015 C-234.03564896 37.75583361 -241.48032945 37.69537446 -248.92511263 37.64408785 C-253.49262381 37.61215667 -258.05997436 37.5708546 -262.62735453 37.52389247 C-264.35873343 37.50796759 -266.09014914 37.49560262 -267.82157984 37.48698527 C-291.68230931 37.36647461 -291.68230931 37.36647461 -299.34430208 30.1208945 C-303.09960565 24.98864628 -303.87041182 20.43421135 -303.34430208 14.1208945 C-302.27680974 10.08131917 -300.7422107 7.09337334 -297.26041009 4.67119968 C-291.02316739 1.46972414 -286.07566153 0.39880835 -279.10556307 0.48165805 C-278.12278537 0.47330237 -277.14000766 0.46494669 -276.12744882 0.45633781 C-272.85447603 0.43451126 -269.58263722 0.44798938 -266.30963411 0.46147067 C-263.94779896 0.45300636 -261.58597079 0.44235719 -259.22415438 0.42970187 C-253.45805435 0.40441812 -247.69227122 0.40205547 -241.92612831 0.40969976 C-235.08513961 0.41749917 -228.24431707 0.39668752 -221.40337003 0.37468098 C-209.04139 0.33568709 -196.67948387 0.31912951 -184.31744661 0.31645114 C-172.62274357 0.31387128 -160.92813367 0.3013057 -149.23346224 0.27348239 C-148.52846434 0.27181444 -147.82346643 0.2701465 -147.09710496 0.26842802 C-143.54385949 0.2599712 -139.99061452 0.25132367 -136.43736973 0.24259073 C-117.92102329 0.19727531 -99.40471364 0.1598681 -80.88830843 0.15431124 C-80.18252819 0.15408813 -79.47674795 0.15386501 -78.74958044 0.15363513 C-73.04526348 0.1518815 -67.34094643 0.15035292 -61.63662931 0.14931456 C-41.09076901 0.14552238 -20.54564472 0.09347505 0 0 Z " fill="#0063AF" transform="translate(550.3443020805717,360.8791055046022)"/>
<path d="M0 0 C4.46305344 3.32649946 8.49951531 7.02867706 12.515625 10.875 C13.27746094 11.56207031 14.03929687 12.24914062 14.82421875 12.95703125 C32.28611357 29.2689226 41.00105916 53.6075626 41.828125 77.125 C40.90703906 114.02261928 18.34537469 142.67325492 -5.55078125 168.76171875 C-7.35325221 170.73169206 -9.11195899 172.73122056 -10.859375 174.75 C-14.31356804 178.71830549 -17.87568058 182.58512559 -21.43920898 186.45483398 C-23.971482 189.20938092 -26.47457703 191.98225075 -28.921875 194.8125 C-32.11682251 198.48824058 -35.3840272 202.09495621 -38.671875 205.6875 C-39.18355225 206.25138428 -39.69522949 206.81526855 -40.22241211 207.39624023 C-41.61721418 208.91334132 -43.04957061 210.39567418 -44.484375 211.875 C-45.07863281 212.49761719 -45.67289063 213.12023437 -46.28515625 213.76171875 C-50.00324366 215.64387668 -53.43703478 215.80705332 -57.484375 214.875 C-60.4957567 212.95377049 -62.73638299 210.52538713 -65.109375 207.875 C-65.76397705 207.18164551 -66.4185791 206.48829102 -67.09301758 205.77392578 C-68.91667678 203.82993749 -70.70658331 201.8608944 -72.484375 199.875 C-73.17660156 199.10929688 -73.86882812 198.34359375 -74.58203125 197.5546875 C-75.62801862 196.36735048 -76.66230981 195.16958877 -77.68359375 193.9609375 C-80.2120953 191.03204416 -82.85142575 188.20989818 -85.484375 185.375 C-89.89984951 180.60882337 -94.24920565 175.80287821 -98.484375 170.875 C-99.37355041 169.85143434 -100.26288817 168.8280097 -101.15234375 167.8046875 C-125.37884474 139.84458202 -149.78709128 110.1781541 -147.65283203 71.00244141 C-145.56504701 44.63583461 -132.05325956 22.11963369 -112.484375 4.875 C-80.82787518 -21.07057449 -33.7612632 -22.6422843 0 0 Z " fill="#2F383E" transform="translate(577.484375,119.125)"/>
<path d="M0 0 C10.69201083 8.59069078 15.9582558 21.5696678 18.390625 34.76953125 C20.49218656 54.72375217 18.51838517 73.51526472 5.58984375 89.69140625 C-2.91109235 98.85060068 -14.30345975 103.81818633 -26.6328125 104.6796875 C-41.33122693 104.97837186 -53.36828589 101.29658551 -64.47265625 91.4453125 C-76.68907068 78.83556655 -79.52569403 62.23096203 -79.375 45.38671875 C-78.72471382 28.54597403 -74.25842398 12.2426245 -61.69140625 0.328125 C-42.45829133 -14.37060048 -19.52869631 -13.69411218 0 0 Z " fill="#2F383D" transform="translate(270.22265625,790.55859375)"/>
<path d="M0 0 C13.39749144 9.18517972 20.29093963 22.16243709 23.25 37.875 C23.65484698 41.96998137 23.72840054 46.01208042 23.6875 50.125 C23.67920166 51.21256592 23.67090332 52.30013184 23.66235352 53.4206543 C23.33223934 69.27200883 19.49078866 83.08874204 8.6875 95.1875 C-2.04075359 105.20471924 -15.61324302 108.49459147 -29.84765625 108.12109375 C-42.06340703 107.35073109 -53.3368246 101.44684473 -61.6796875 92.55078125 C-71.12582301 80.34209668 -74.32188455 66.13361176 -74.125 50.9375 C-74.11412354 49.79450439 -74.10324707 48.65150879 -74.09204102 47.47387695 C-73.79169798 31.60103074 -69.91548409 17.48670188 -58.6875 5.58203125 C-41.93768137 -9.17536944 -19.1422021 -11.26168496 0 0 Z " fill="#2E363C" transform="translate(479.75,787.125)"/>
<path d="M0 0 C2.00500427 1.43711289 3.86206058 2.95040876 5.71484375 4.578125 C6.62169922 5.34576172 6.62169922 5.34576172 7.546875 6.12890625 C14.76737994 12.72017329 20.04135764 22.16902694 20.93383789 31.98730469 C21.74395009 50.20552735 19.64042553 63.46512699 7.16796875 77.4296875 C-3.73748069 89.07415808 -17.47882803 96.39443534 -33.60473633 97.12133789 C-46.41044279 97.24150071 -54.94073819 92.65547332 -64.00390625 83.921875 C-73.31067647 73.85536844 -76.0117012 61.42317005 -75.65625 48.09375 C-74.89535415 35.4753348 -69.43437234 24.75766725 -62.28515625 14.578125 C-61.86492187 13.95421875 -61.4446875 13.3303125 -61.01171875 12.6875 C-47.36020961 -5.70815061 -19.04677567 -11.85132708 0 0 Z " fill="#0163AF" transform="translate(427.28515625,602.421875)"/>
<path d="M0 0 C11.0921863 7.57109719 17.69247935 17.45942538 21.4296875 30.33203125 C23.70914348 43.3870973 21.2031655 57.01196943 14.1171875 68.26953125 C11.9096918 71.38331532 9.55079149 74.3310537 7.1171875 77.26953125 C5.9725 78.81640625 5.9725 78.81640625 4.8046875 80.39453125 C-5.70698591 91.63957722 -21.05283305 97.02445211 -36.1953125 97.70703125 C-46.9494305 97.48142038 -55.04286705 93.11282132 -62.69140625 85.734375 C-72.74187782 74.42983389 -76.02094203 61.37701255 -75.15234375 46.55810547 C-73.55683524 33.0107352 -64.93687682 16.19990603 -54.8828125 7.26953125 C-38.75512518 -5.0984862 -18.27164844 -10.96794073 0 0 Z " fill="#0163AF" transform="translate(752.8828125,601.73046875)"/>
<path d="M0 0 C9.30057481 6.81938119 17.03548023 15.95298536 19.515625 27.45703125 C20.64725764 40.29364759 20.10962022 52.55359269 12.265625 63.26953125 C11.04770502 64.69344193 9.79775646 66.09065296 8.515625 67.45703125 C7.91878906 68.09511719 7.32195312 68.73320312 6.70703125 69.390625 C-2.16323364 77.96582911 -13.42864664 80.75218074 -25.4296875 80.60546875 C-37.74051721 80.00724429 -48.19234461 74.52743231 -56.484375 65.45703125 C-65.00099885 54.09533437 -66.65193241 42.27312722 -65.484375 28.45703125 C-63.78937764 17.60904814 -57.00219433 8.19205119 -48.484375 1.45703125 C-33.74253754 -7.25922226 -15.12168295 -9.39161127 0 0 Z " fill="#F8F5F2" transform="translate(547.484375,160.54296875)"/>
<path d="M0 0 C7.6476329 -0.43294045 15.29209538 -0.72942348 22.94921875 -0.93383789 C25.54970291 -1.0190652 28.14937835 -1.1348969 30.74707031 -1.2824707 C51.71647281 -2.44342038 51.71647281 -2.44342038 57.0927124 1.55728149 C60.51021113 5.52162242 62.42695405 10.02558823 64.19891357 14.90719604 C65.26502555 17.6923679 66.75662576 20.06920336 68.3984375 22.55078125 C68.89150391 23.34121826 69.38457031 24.13165527 69.89257812 24.94604492 C70.38177734 25.7269751 70.87097656 26.50790527 71.375 27.3125 C75.79089105 34.41296195 80.17738052 41.52981038 84.5 48.6875 C84.98001465 49.47616455 85.4600293 50.2648291 85.95458984 51.07739258 C88.36719823 55.08808901 90.6928824 59.14538108 92.90625 63.26953125 C93.33228516 64.05561768 93.75832031 64.8417041 94.19726562 65.65161133 C95 68 95 68 94 73 C61.66 73 29.32 73 -4 73 C-4 59.16381685 -4 59.16381685 -3.6328125 52.578125 C-3.59316376 51.83077087 -3.55351501 51.08341675 -3.51266479 50.31341553 C-3.4284943 48.74385088 -3.34272184 47.17437134 -3.25537109 45.60498047 C-3.12751794 43.29548323 -3.00673364 40.98569738 -2.88671875 38.67578125 C-2.19417705 25.76125553 -1.12522924 12.88326363 0 0 Z " fill="#F6F4F2" transform="translate(700,434)"/>
<path d="M0 0 C8.43596581 6.54435684 14.10084173 16.51392532 16 27 C12.10517784 27.23282073 8.21214146 27.37456639 4.3125 27.5 C3.20970703 27.56703125 2.10691406 27.6340625 0.97070312 27.703125 C-2.20364537 27.77984641 -4.91305204 27.75567394 -8 27 C-9.94541503 25.12503621 -10.93850817 23.4663035 -12.04614258 21.01318359 C-13.95780088 16.97849346 -17.53700665 14.80849633 -21.375 12.6875 C-27.91039765 10.97584823 -33.17167383 11.60897387 -39 15 C-46.15438815 21.44339306 -49.54422262 29.07847035 -50.17700195 38.68798828 C-50.24388195 41.83374622 -50.28486811 44.9786487 -50.3125 48.125 C-50.35600586 49.74148438 -50.35600586 49.74148438 -50.40039062 51.390625 C-50.48248157 61.87300741 -48.22709177 70.75667902 -40.765625 78.40625 C-35.32906339 83.3135888 -30.23634119 83.54198923 -23.12890625 83.33984375 C-17.94358622 82.7766442 -14.99393861 81.36813621 -11.54296875 77.26953125 C-8.19430188 72.43471252 -6.98891975 67.75371491 -6 62 C-11.28 62 -16.56 62 -22 62 C-22 56.72 -22 51.44 -22 46 C-9.79 46 2.42 46 15 46 C15.47409767 63.18604067 15.13145537 81.13538964 2.9375 94.75 C-7.34112078 104.22245444 -19.90805496 106.48351696 -33.35546875 106.2421875 C-43.97103988 105.53675834 -52.98734299 101.00488545 -60.51953125 93.484375 C-74.662812 77.06597281 -76.09229722 57.76620238 -75 37 C-73.39164578 23.6314778 -66.86598894 11.53290702 -57.1015625 2.4140625 C-39.51823653 -11.27170003 -18.34764696 -13.16571711 0 0 Z " fill="#303A40" transform="translate(376,789)"/>
<path d="M0 0 C21.45 0 42.9 0 65 0 C65 6.27 65 12.54 65 19 C50.81 19 36.62 19 22 19 C22 27.58 22 36.16 22 45 C34.54 45 47.08 45 60 45 C60 55 60 55 59 63 C46.79 63 34.58 63 22 63 C22 71.91 22 80.82 22 90 C36.52 90 51.04 90 66 90 C66 95.94 66 101.88 66 108 C65 109 65 109 62.37413025 109.12025452 C61.20386795 109.11803391 60.03360565 109.11581329 58.82788086 109.11352539 C58.17355607 109.11364593 57.51923128 109.11376646 56.84507847 109.11389065 C54.71829948 109.11314179 52.59160715 109.10551481 50.46484375 109.09765625 C48.52019226 109.09614563 48.52019226 109.09614563 46.53625488 109.09460449 C41.66999432 109.08935257 36.80374632 109.07539147 31.9375 109.0625 C21.068125 109.041875 10.19875 109.02125 -1 109 C-0.67 73.03 -0.34 37.06 0 0 Z " fill="#2C353B" transform="translate(647,783)"/>
<path d="M0 0 C7.92 0 15.84 0 24 0 C28.96806861 8.73418513 33.85560352 17.49712398 38.5625 26.375 C39.00384277 27.20104736 39.44518555 28.02709473 39.89990234 28.87817383 C40.30547363 29.64798584 40.71104492 30.41779785 41.12890625 31.2109375 C41.67140015 32.23646729 41.67140015 32.23646729 42.22485352 33.28271484 C43 35 43 35 43 37 C45.93802246 34.41749168 47.58202724 31.45055563 49.46875 28.046875 C49.95112122 27.17920502 49.95112122 27.17920502 50.4432373 26.29400635 C51.12134466 25.07154525 51.79695322 23.84769512 52.47021484 22.62255859 C53.49070423 20.76690341 54.52005455 18.91639062 55.55078125 17.06640625 C58.66064674 11.44762913 61.46108133 5.92414356 64 0 C72.25 0 80.5 0 89 0 C88.08865338 4.5567331 87.35971128 6.41644341 84.9296875 10.1484375 C83.96554932 11.64068848 83.96554932 11.64068848 82.98193359 13.16308594 C82.28664551 14.22301758 81.59135742 15.28294922 80.875 16.375 C80.16811035 17.47102539 79.4612207 18.56705078 78.73291016 19.69628906 C75.06771454 25.37404374 71.33477846 30.99992507 67.53125 36.5859375 C66.83273926 37.62314941 66.13422852 38.66036133 65.41455078 39.72900391 C64.07474862 41.71352772 62.71934285 43.68762288 61.34716797 45.64990234 C60.44442139 46.99109131 60.44442139 46.99109131 59.5234375 48.359375 C58.98638184 49.13764648 58.44932617 49.91591797 57.89599609 50.71777344 C56.7401555 53.00160627 56.7401555 53.00160627 57.65136719 55.47314453 C59.03788662 58.07098598 60.4831542 60.57951873 62.0546875 63.0703125 C62.66393066 64.04049316 63.27317383 65.01067383 63.90087891 66.01025391 C64.87806885 67.55205322 64.87806885 67.55205322 65.875 69.125 C66.54321777 70.18509277 67.21143555 71.24518555 67.89990234 72.33740234 C69.26963259 74.50975217 70.64089181 76.68113867 72.01367188 78.8515625 C73.84800565 81.75908073 75.66916374 84.6742677 77.484375 87.59375 C78.53118983 89.27087089 79.5780614 90.94795637 80.625 92.625 C81.33245361 93.76799561 81.33245361 93.76799561 82.05419922 94.93408203 C84.14820597 98.27171074 86.26440107 101.4082369 88.8359375 104.3984375 C91 107 91 107 91 109 C82.75 109 74.5 109 66 109 C64.02 105.473125 62.04 101.94625 60 98.3125 C53.06542332 84.41622859 53.06542332 84.41622859 44 72 C43.38253906 73.11375 42.76507812 74.2275 42.12890625 75.375 C37.76735581 83.23740541 33.39863952 91.09577173 29 98.9375 C28.62689697 99.60458984 28.25379395 100.27167969 27.86938477 100.95898438 C26.32488648 103.70761335 24.74998399 106.37502401 23 109 C20.56982422 109.34057617 20.56982422 109.34057617 17.5546875 109.29296875 C16.47832031 109.28330078 15.40195312 109.27363281 14.29296875 109.26367188 C13.16503906 109.23853516 12.03710938 109.21339844 10.875 109.1875 C9.73933594 109.17396484 8.60367188 109.16042969 7.43359375 109.14648438 C4.62192613 109.11104319 1.81119583 109.06163517 -1 109 C0.15060854 105.96631207 1.346852 103.23229952 3.14453125 100.53125 C3.7792334 99.56662842 3.7792334 99.56662842 4.42675781 98.58251953 C4.88405273 97.89528809 5.34134766 97.20805664 5.8125 96.5 C10.81264493 88.88545515 15.65332917 81.18316901 20.40966797 73.4140625 C22.69114753 69.69394296 24.96804186 65.98942262 27.44921875 62.3984375 C28.10535156 61.44195313 28.76148438 60.48546875 29.4375 59.5 C29.99308594 58.7265625 30.54867187 57.953125 31.12109375 57.15625 C32.24582573 55.00172986 32.24582573 55.00172986 31.41796875 52.640625 C29.69225673 49.42690234 27.83546856 46.32370344 25.875 43.25 C25.4526709 42.5811377 25.0303418 41.91227539 24.59521484 41.22314453 C23.06916929 38.81176775 21.53511876 36.40561096 20 34 C19.34966797 32.97938477 18.69933594 31.95876953 18.02929688 30.90722656 C14.53855249 25.43170768 11.04254075 19.95956804 7.5390625 14.4921875 C6.92192383 13.52764648 6.30478516 12.56310547 5.66894531 11.56933594 C4.32331767 9.49774652 2.94088998 7.4675779 1.5234375 5.4453125 C0 3 0 3 0 0 Z " fill="#2E363C" transform="translate(728,783)"/>
<path d="M0 0 C25.74 0 51.48 0 78 0 C78 6.6 78 13.2 78 20 C69.09 20 60.18 20 51 20 C51 49.37 51 78.74 51 109 C43.41 109 35.82 109 28 109 C28 79.63 28 50.26 28 20 C18.76 20 9.52 20 0 20 C0 13.4 0 6.8 0 0 Z " fill="#2C353A" transform="translate(829,783)"/>
<path d="M0 0 C25.74 0 51.48 0 78 0 C78 6.6 78 13.2 78 20 C69.09 20 60.18 20 51 20 C51 49.37 51 78.74 51 109 C43.41 109 35.82 109 28 109 C28 79.63 28 50.26 28 20 C18.76 20 9.52 20 0 20 C0 13.4 0 6.8 0 0 Z " fill="#2D353B" transform="translate(551,783)"/>
<path d="M0 0 C7.59 0 15.18 0 23 0 C23 29.7 23 59.4 23 90 C36.53 90 50.06 90 64 90 C64 96.27 64 102.54 64 109 C42.88 109 21.76 109 0 109 C0 73.03 0 37.06 0 0 Z " fill="#2D353A" transform="translate(120,783)"/>
<path d="M0 0 C6.4330641 3.85440972 10.11912034 9.4931578 12.5625 16.4375 C13.98495801 22.40596427 13.8648477 28.39390481 13.9375 34.5 C13.99357422 36.24700195 13.99357422 36.24700195 14.05078125 38.02929688 C14.14670091 47.59461818 12.35934546 55.77658837 6.2109375 63.32421875 C5.46070313 63.91847656 4.71046875 64.51273438 3.9375 65.125 C3.18210938 65.74761719 2.42671875 66.37023437 1.6484375 67.01171875 C-2.22771066 69.66114586 -5.66790226 69.62894284 -10.25 69.6875 C-11.45269531 69.71328125 -12.65539062 69.7390625 -13.89453125 69.765625 C-21.63882128 69.04840299 -25.6835096 64.59648899 -30.5625 59 C-37.18781358 48.41565758 -36.72235423 31.88997709 -34.6875 19.9375 C-32.5412157 11.00715625 -28.15342426 4.58144951 -20.4375 -0.5625 C-14.1386886 -2.6621038 -6.11504343 -2.77310109 0 0 Z " fill="#F8F5F2" transform="translate(250.4375,803.5625)"/>
<path d="M0 0 C6.19258753 2.2052447 10.94851927 5.86568536 14.0390625 11.70703125 C19.75611828 25.34894891 20.40469631 43.11143777 15 57 C12.17442726 62.87447253 8.7590484 67.18960016 2.76953125 70.07421875 C-3.20293784 72.07065764 -10.49860732 72.18551091 -16.48046875 70.16015625 C-24.05314145 65.80989747 -28.06992518 58.980091 -30.40014648 50.78930664 C-31.42046751 46.04483463 -31.43321842 41.3978635 -31.375 36.5625 C-31.38660156 35.60279297 -31.39820313 34.64308594 -31.41015625 33.65429688 C-31.3719018 24.18632061 -29.6379182 14.77118454 -24 7 C-16.24581226 0.20159683 -10.37824743 -1.13117406 0 0 Z " fill="#F7F5F2" transform="translate(461,802)"/>
<path d="M0 0 C4.33142776 4.9877047 5.63010156 9.20421201 5.4140625 15.71484375 C4.47724405 22.80343669 1.74872416 28.90725245 -3.9375 33.375 C-9.03509122 36.81291035 -13.96311727 37.23126332 -19.9375 36.375 C-24.3597812 34.32764759 -27.0214905 31.74772982 -29.23828125 27.3515625 C-31.28222757 21.57370307 -30.36260488 16.6734101 -27.875 11.1875 C-24.82355796 5.62920755 -21.02027237 2.20799979 -15.625 -1 C-10.19274621 -2.26331484 -4.97029648 -2.74952571 0 0 Z " fill="#F5F4F3" transform="translate(411.9375,630.625)"/>
<path d="M0 0 C3.36765486 1.6769265 5.41059071 4.03551207 7.375 7.25 C9.20836753 15.31681713 7.95929701 22.71752572 4 30 C0.36870049 34.15005658 -3.36640987 37.64010155 -9.05078125 38.203125 C-14.12371711 38.30826357 -17.75792166 38.08514788 -22 35 C-25.56061197 31.07202331 -27.32484898 27.3184659 -27.5625 22 C-27.16318436 15.14858434 -24.70141191 10.26865221 -19.625 5.6875 C-13.40579625 0.86202902 -7.92766339 -1.37704543 0 0 Z " fill="#F6F5F3" transform="translate(735,629)"/>
<path d="M0 0 C2.34309798 0.00503613 4.68619703 0.00959522 7.02929688 0.01367188 C12.6653921 0.02448474 18.30143343 0.04162687 23.9375 0.0625 C23.9375 6.6625 23.9375 13.2625 23.9375 20.0625 C15.0275 20.0625 6.1175 20.0625 -3.0625 20.0625 C-3.0625 49.4325 -3.0625 78.8025 -3.0625 109.0625 C-3.3925 109.0625 -3.7225 109.0625 -4.0625 109.0625 C-4.21607007 97.34529795 -4.36425184 85.62804153 -4.5054636 73.91068363 C-4.57119791 68.47044697 -4.63882165 63.0302472 -4.71069336 57.59008789 C-4.77992364 52.34469179 -4.84428238 47.09925691 -4.90519524 41.85375786 C-4.92935903 39.84777068 -4.95530876 37.84180423 -4.98303413 35.83586311 C-5.02142701 33.03652314 -5.05359448 30.23717821 -5.08422852 27.43774414 C-5.09717453 26.59977295 -5.11012054 25.76180176 -5.12345886 24.8984375 C-5.1415096 22.95310262 -5.10774918 21.00739232 -5.0625 19.0625 C-4.0625 18.0625 -4.0625 18.0625 -1.56225586 17.94897461 C-0.47823486 17.95421143 0.60578613 17.95944824 1.72265625 17.96484375 C2.89248047 17.96806641 4.06230469 17.97128906 5.26757812 17.97460938 C6.49927734 17.98298828 7.73097656 17.99136719 9 18 C10.85334961 18.00676758 10.85334961 18.00676758 12.74414062 18.01367188 C15.80861413 18.02550382 18.87306293 18.04343992 21.9375 18.0625 C21.6075 12.7825 21.2775 7.5025 20.9375 2.0625 C-3.1525 2.0625 -27.2425 2.0625 -52.0625 2.0625 C-52.0625 1.7325 -52.0625 1.4025 -52.0625 1.0625 C-34.69775275 0.21723714 -17.38345929 -0.06641126 0 0 Z " fill="#353E42" transform="translate(605.0625,782.9375)"/>
<path d="M0 0 C8.91 0 17.82 0 27 0 C27 0.33 27 0.66 27 1 C14.625 1.495 14.625 1.495 2 2 C2.00785522 5.99081665 2.00785522 5.99081665 2.01586914 10.06225586 C2.0324042 18.83133771 2.04347088 27.60042023 2.05181217 36.36951351 C2.05704122 41.68865213 2.06413927 47.00777484 2.07543945 52.3269043 C2.08626755 57.45563985 2.09227667 62.58436006 2.09487724 67.71310616 C2.09673163 69.67441614 2.10035251 71.63572524 2.10573006 73.59702873 C2.11293946 76.33415447 2.11399099 79.07121597 2.11352539 81.80834961 C2.11712067 82.62761932 2.12071594 83.44688904 2.12442017 84.29098511 C2.11405216 89.88594784 2.11405216 89.88594784 1 91 C-0.78071246 91.08726223 -2.5648314 91.10699041 -4.34765625 91.09765625 C-5.42724609 91.09443359 -6.50683594 91.09121094 -7.61914062 91.08789062 C-8.75544922 91.07951172 -9.89175781 91.07113281 -11.0625 91.0625 C-12.20267578 91.05798828 -13.34285156 91.05347656 -14.51757812 91.04882812 C-17.34510351 91.03699747 -20.1725264 91.0205141 -23 91 C-23 90.67 -23 90.34 -23 90 C-15.41 90 -7.82 90 0 90 C0 60.3 0 30.6 0 0 Z " fill="#FBFBFA" transform="translate(880,803)"/>
<path d="M0 0 C8.91 0 17.82 0 27 0 C27 29.37 27 58.74 27 89 C34.59 89 42.18 89 50 89 C50 89.33 50 89.66 50 90 C37.625 90.495 37.625 90.495 25 91 C25 61.63 25 32.26 25 2 C16.75 1.67 8.5 1.34 0 1 C0 0.67 0 0.34 0 0 Z " fill="#E8E8E8" transform="translate(830,803)"/>
<path d="M0 0 C16.7992167 -0.05689828 33.57948633 0.16467486 50.375 0.5 C52.87629835 0.54837034 55.37760043 0.59654848 57.87890625 0.64453125 C63.9193154 0.76081381 69.95967487 0.87943579 76 1 C76 1.33 76 1.66 76 2 C51.58 2 27.16 2 2 2 C2 7.61 2 13.22 2 19 C10.58 19 19.16 19 28 19 C28 19.33 28 19.66 28 20 C18.76 20 9.52 20 0 20 C0 13.4 0 6.8 0 0 Z " fill="#21292F" transform="translate(829,783)"/>
<path d="M0 0 C14.52 0 29.04 0 44 0 C44 0.33 44 0.66 44 1 C30.14 1 16.28 1 2 1 C2.33 8.59 2.66 16.18 3 24 C14.22 24.33 25.44 24.66 37 25 C37 25.33 37 25.66 37 26 C24.79 26 12.58 26 0 26 C0 17.42 0 8.84 0 0 Z " fill="#EDEDEC" transform="translate(669,802)"/>
<path d="M0 0 C3.82622743 1.5588334 6.25147379 3.95433582 9 7 C9.33 7.99 9.66 8.98 10 10 C16.6 10 23.2 10 30 10 C30.33 9.01 30.66 8.02 31 7 C31.66 8.98 32.32 10.96 33 13 C29.10517784 13.23282073 25.21214146 13.37456639 21.3125 13.5 C20.20970703 13.56703125 19.10691406 13.6340625 17.97070312 13.703125 C9.94585015 13.89707915 9.94585015 13.89707915 7.19604492 11.2890625 C5.92684397 9.23995151 4.96516832 7.20458051 4 5 C2.69694744 3.30955344 1.37639625 1.63128444 0 0 Z " fill="#212B32" transform="translate(359,803)"/>
<path d="M0 0 C0.66 0 1.32 0 2 0 C1.50447314 1.98682409 1.00725034 3.9724094 0.48681641 5.95288086 C-1.03823483 12.1530533 -1.42274515 18.19568582 -1.625 24.5625 C-1.66367188 25.57119141 -1.70234375 26.57988281 -1.7421875 27.61914062 C-1.83546203 30.0792564 -1.92125516 32.53938366 -2 35 C-4.15316935 31.10526517 -4.30825246 27.75159907 -4.25 23.375 C-4.24468262 22.6636792 -4.23936523 21.9523584 -4.23388672 21.21948242 C-4.10143308 13.82638954 -3.15661177 6.76416808 0 0 Z " fill="#DBDDDD" transform="translate(219,814)"/>
<path d="M0 0 C9.57 0.33 19.14 0.66 29 1 C28.34 2.32 27.68 3.64 27 5 C27 4.34 27 3.68 27 3 C18.09 3 9.18 3 0 3 C0 2.01 0 1.02 0 0 Z " fill="#E8E7E6" transform="translate(550,802)"/>
<path d="M0 0 C1.98 0.99 1.98 0.99 4 2 C3.34 2 2.68 2 2 2 C2.33 10.25 2.66 18.5 3 27 C2.01 27 1.02 27 0 27 C0 18.09 0 9.18 0 0 Z " fill="#CBCCCD" transform="translate(669,846)"/>
<path d="M0 0 C7.26 0 14.52 0 22 0 C20.9957244 5.02137798 20.60239038 5.86243419 17 9 C18.875 4.25 18.875 4.25 20 2 C13.4 2 6.8 2 0 2 C0 1.34 0 0.68 0 0 Z " fill="#1B242A" transform="translate(795,783)"/>
<path d="M0 0 C0.33 0.66 0.66 1.32 1 2 C7.93 2 14.86 2 22 2 C22 2.66 22 3.32 22 4 C14.08 4 6.16 4 -2 4 C-1.34 2.68 -0.68 1.36 0 0 Z " fill="#182227" transform="translate(729,888)"/>
<path d="M0 0 C0.33 0.66 0.66 1.32 1 2 C0.02662373 3.91318784 -0.95082358 5.82446212 -1.953125 7.72265625 C-3.30973417 10.67378739 -3.88326622 13.5715367 -4.49609375 16.74609375 C-5.29483256 20.31874719 -6.64201223 23.60503057 -8 27 C-8.66 27 -9.32 27 -10 27 C-9.3288845 17.38067776 -5.07968462 8.0898681 0 0 Z " fill="#0C59A9" transform="translate(688,623)"/>
<path d="M0 0 C0.66 0.33 1.32 0.66 2 1 C-0.26994864 3.43832518 -2.54111319 5.87551454 -4.8125 8.3125 C-5.77639648 9.34793945 -5.77639648 9.34793945 -6.75976562 10.40429688 C-7.38173828 11.07138672 -8.00371094 11.73847656 -8.64453125 12.42578125 C-9.21534424 13.03848877 -9.78615723 13.65119629 -10.37426758 14.2824707 C-11.88978091 15.88355739 -13.43291809 17.44952293 -15 19 C-15.66 18.67 -16.32 18.34 -17 18 C-11.51481106 11.80376805 -5.92437965 5.77909513 0 0 Z " fill="#1C252B" transform="translate(465,124)"/>
<path d="M0 0 C8.91 0 17.82 0 27 0 C27 0.33 27 0.66 27 1 C20.60469714 2.99853214 15.60181665 3.00727043 9 2.125 C7.69482422 1.96837891 7.69482422 1.96837891 6.36328125 1.80859375 C4.2405831 1.55200386 2.12002328 1.27782563 0 1 C0 0.67 0 0.34 0 0 Z " fill="#E7F3F2" transform="translate(269,603)"/>
<path d="M0 0 C1.95803507 -0.05389087 3.91648909 -0.09274217 5.875 -0.125 C7.51082031 -0.15980469 7.51082031 -0.15980469 9.1796875 -0.1953125 C12 0 12 0 14 2 C13.030625 2.12375 12.06125 2.2475 11.0625 2.375 C10.051875 2.58125 9.04125 2.7875 8 3 C7.67 3.66 7.34 4.32 7 5 C4.36 4.34 1.72 3.68 -1 3 C-0.67 2.01 -0.34 1.02 0 0 Z " fill="#364046" transform="translate(344,780)"/>
<path d="M0 0 C0.99 0 1.98 0 3 0 C3 6.27 3 12.54 3 19 C-0.11591456 12.76817087 -0.11968408 6.82199235 0 0 Z " fill="#EFEEED" transform="translate(476,828)"/>
<path d="M0 0 C8.91 0 17.82 0 27 0 C27 0.66 27 1.32 27 2 C13.635 2.495 13.635 2.495 0 3 C0 2.01 0 1.02 0 0 Z " fill="#E4E4E4" transform="translate(793,891)"/>
<path d="M0 0 C0.99 0.66 1.98 1.32 3 2 C2.51917969 2.54140625 2.03835937 3.0828125 1.54296875 3.640625 C-0.31323558 6.47897288 -0.48737656 8.38792626 -0.6875 11.75 C-0.75324219 12.73484375 -0.81898438 13.7196875 -0.88671875 14.734375 C-0.92410156 15.48203125 -0.96148437 16.2296875 -1 17 C-3 15 -3 15 -3.3125 11.875 C-2.94707674 7.34375158 -1.75707285 4.17304803 0 0 Z " fill="#1764AE" transform="translate(172,447)"/>
<path d="M0 0 C1.65322266 0.01740234 1.65322266 0.01740234 3.33984375 0.03515625 C4.99693359 0.04869141 4.99693359 0.04869141 6.6875 0.0625 C7.54214844 0.07410156 8.39679688 0.08570313 9.27734375 0.09765625 C9.60734375 0.75765625 9.93734375 1.41765625 10.27734375 2.09765625 C7.96734375 2.09765625 5.65734375 2.09765625 3.27734375 2.09765625 C3.27734375 2.75765625 3.27734375 3.41765625 3.27734375 4.09765625 C0.77376514 3.26313005 -1.39051477 2.30393633 -3.72265625 1.09765625 C-2.72265625 0.09765625 -2.72265625 0.09765625 0 0 Z " fill="#1063AD" transform="translate(403.72265625,595.90234375)"/>
<path d="M0 0 C0.66 0.33 1.32 0.66 2 1 C1.01 1 0.02 1 -1 1 C-0.67 0.67 -0.34 0.34 0 0 Z M-3 2 C-2.34 2.33 -1.68 2.66 -1 3 C-3.64 5.97 -6.28 8.94 -9 12 C-9.99 11.67 -10.98 11.34 -12 11 C-9.03 8.03 -6.06 5.06 -3 2 Z " fill="#E6F0F3" transform="translate(694,589)"/>
<path d="M0 0 C0.66 0 1.32 0 2 0 C3.65625 1.8984375 3.65625 1.8984375 5.5 4.375 C7.26366443 6.72904362 8.9191905 8.9191905 11 11 C8.875 11 8.875 11 6 10 C0 3.60655738 0 3.60655738 0 0 Z " fill="#ECEBEC" transform="translate(309,875)"/>
<path d="M0 0 C0.66 0 1.32 0 2 0 C1.85691406 0.56203125 1.71382812 1.1240625 1.56640625 1.703125 C0.98879098 4.04545453 0.45716693 6.39417659 -0.0625 8.75 C-0.23910156 9.54921875 -0.41570312 10.3484375 -0.59765625 11.171875 C-0.73042969 11.77515625 -0.86320313 12.3784375 -1 13 C-1.66 13 -2.32 13 -3 13 C-2.52060632 8.28596212 -2.03165952 4.33420699 0 0 Z " fill="#E2E3E3" transform="translate(219,814)"/>
<path d="M0 0 C0.66 0.33 1.32 0.66 2 1 C-0.64 4.63 -3.28 8.26 -6 12 C-6.33 11.34 -6.66 10.68 -7 10 C-6.02223933 8.51990357 -5.0427506 7.04094856 -4.0625 5.5625 C-3.51722656 4.73878906 -2.97195313 3.91507813 -2.41015625 3.06640625 C-1 1 -1 1 0 0 Z " fill="#0653A6" transform="translate(367,615)"/>
<path d="M0 0 C-1.625 2.0625 -1.625 2.0625 -4 4 C-7.25 3.75 -7.25 3.75 -10 3 C-8.0130571 -0.97388579 -3.91761109 -0.08705802 0 0 Z " fill="#263037" transform="translate(342,782)"/>
<path d="M0 0 C0.66 0 1.32 0 2 0 C1.125 4.875 1.125 4.875 0 6 C-0.23192865 7.51469448 -0.41215238 9.03754562 -0.5625 10.5625 C-0.64628906 11.38878906 -0.73007812 12.21507812 -0.81640625 13.06640625 C-0.87699219 13.70449219 -0.93757812 14.34257813 -1 15 C-1.33 15 -1.66 15 -2 15 C-2.3690205 4.44191344 -2.3690205 4.44191344 0 0 Z " fill="#B6D6E6" transform="translate(710,641)"/>
<path d="M0 0 C0.66 0 1.32 0 2 0 C2 0.66 2 1.32 2 2 C2.66 2.33 3.32 2.66 4 3 C2.68 4.32 1.36 5.64 0 7 C-1.04449911 3.86650268 -0.93423645 3.01031744 0 0 Z M-2 6 C-2 9 -2 9 -2 9 Z " fill="#EDEDEC" transform="translate(817,782)"/>
<path d="M0 0 C0.99 0.33 1.98 0.66 3 1 C2.071875 1.763125 1.14375 2.52625 0.1875 3.3125 C-1.98276101 5.11848552 -4.05568065 6.9476629 -6 9 C-6 6 -6 6 -4.6875 4.39453125 C-4.130625 3.87246094 -3.57375 3.35039063 -3 2.8125 C-2.443125 2.28269531 -1.88625 1.75289062 -1.3125 1.20703125 C-0.6628125 0.60955078 -0.6628125 0.60955078 0 0 Z " fill="#ECECEC" transform="translate(423,789)"/>
<path d="M0 0 C3.94139078 1.66751148 6.7892812 4.22710649 10 7 C9.34 7.66 8.68 8.32 8 9 C6.66368764 7.6905332 5.33102075 6.37734515 4 5.0625 C3.2575 4.33160156 2.515 3.60070312 1.75 2.84765625 C0 1 0 1 0 0 Z " fill="#0D5CAB" transform="translate(766,586)"/>
<path d="M0 0 C0.66 0.33 1.32 0.66 2 1 C1.38245741 2.31602523 0.75571258 3.62773556 0.125 4.9375 C-0.22304688 5.66839844 -0.57109375 6.39929688 -0.9296875 7.15234375 C-2 9 -2 9 -4 10 C-3.43454163 6.04179141 -2.19097652 3.3340947 0 0 Z " fill="#EEEEEE" transform="translate(802,808)"/>
<path d="M0 0 C0 3.52809907 -0.64276511 4.46815512 -3 7 C-3.99 7 -4.98 7 -6 7 C-4.60667426 3.63279613 -3.0210714 2.0140476 0 0 Z " fill="#1260AC" transform="translate(701,607)"/>
<path d="M0 0 C0.66 0 1.32 0 2 0 C1.67 2.97 1.34 5.94 1 9 C0.01 9 -0.98 9 -2 9 C-1.34 6.03 -0.68 3.06 0 0 Z " fill="#1360AD" transform="translate(742,648)"/>
</svg>
